<?xml version="1.0" encoding="utf-8"?>
<!-- Generator: Adobe Illustrator 13.0.0, SVG Export Plug-In . SVG Version: 6.00 Build 14948)  -->
<!DOCTYPE svg PUBLIC "-//W3C//DTD SVG 1.1//EN" "http://www.w3.org/Graphics/SVG/1.1/DTD/svg11.dtd">
<svg version="1.1" id="Layer_1" xmlns="http://www.w3.org/2000/svg" xmlns:xlink="http://www.w3.org/1999/xlink" x="0px" y="0px"
	 width="175.586px" height="84.301px" viewBox="0 0 175.586 84.301" enable-background="new 0 0 175.586 84.301"
	 xml:space="preserve">
<g>
	<polygon fill-rule="evenodd" clip-rule="evenodd" fill="#ACEBF2" points="113.971,6.764 113.324,6.817 119.473,81.171 
		120.119,81.118 113.971,6.764 	"/>
	<polygon fill-rule="evenodd" clip-rule="evenodd" fill="#ACEBF2" points="175.24,43.019 174.982,42.423 105.423,72.479 
		105.68,73.074 175.24,43.019 	"/>
	<path fill-rule="evenodd" clip-rule="evenodd" fill="#2B89AB" d="M133.435,0c23.278,0,42.151,18.872,42.151,42.151
		c0,23.279-18.873,42.15-42.151,42.15c-15.589,0-29.197-8.465-36.489-21.046h2.217c7.086,11.486,19.784,19.144,34.272,19.144
		c22.229,0,40.248-18.02,40.248-40.248c0-22.229-18.019-40.248-40.248-40.248c-17.161,0-31.812,10.742-37.6,25.868h-2.033
		C99.681,11.572,115.206,0,133.435,0L133.435,0z"/>
	<path fill-rule="evenodd" clip-rule="evenodd" fill="#ACEBF2" d="M133.435,4.537c20.773,0,37.614,16.84,37.614,37.614
		c0,20.773-16.841,37.613-37.614,37.613c-12.951,0-24.369-6.546-31.135-16.509h1.243c6.626,9.369,17.544,15.485,29.892,15.485
		c20.208,0,36.589-16.382,36.589-36.589S153.643,5.562,133.435,5.562c-15.102,0-28.066,9.15-33.652,22.209H98.67
		C104.317,14.133,117.755,4.537,133.435,4.537L133.435,4.537z"/>
	<polygon fill-rule="evenodd" clip-rule="evenodd" fill="#ACEBF2" points="161.143,6.076 160.501,5.99 150.847,78.354 
		151.488,78.44 161.143,6.076 	"/>
	<polygon fill-rule="evenodd" clip-rule="evenodd" fill="#ACEBF2" points="114.385,11.955 113.83,12.291 151.67,74.726 
		152.225,74.389 114.385,11.955 	"/>
	<path fill-rule="evenodd" clip-rule="evenodd" fill="#4AB7C3" d="M113.145,3.468c3.043,0,5.511,2.467,5.511,5.511
		s-2.468,5.511-5.511,5.511c-3.044,0-5.511-2.468-5.511-5.511S110.101,3.468,113.145,3.468L113.145,3.468z"/>
	<path fill-rule="evenodd" clip-rule="evenodd" fill="#2B89AB" d="M104.838,69.645c1.958,0,3.545,1.587,3.545,3.545
		c0,1.957-1.587,3.545-3.545,3.545c-1.956,0-3.543-1.588-3.543-3.545C101.295,71.231,102.882,69.645,104.838,69.645L104.838,69.645z
		"/>
	<path fill-rule="evenodd" clip-rule="evenodd" fill="#4AB7C3" d="M139.274,34.926c3.044,0,5.512,2.468,5.512,5.511
		s-2.468,5.511-5.512,5.511s-5.512-2.468-5.512-5.511S136.23,34.926,139.274,34.926L139.274,34.926z"/>
	<path fill-rule="evenodd" clip-rule="evenodd" fill="#4AB7C3" d="M137.013,14.2c0.663,1.88-0.324,3.941-2.204,4.603
		c-1.88,0.662-3.94-0.325-4.604-2.205c-0.661-1.88,0.326-3.941,2.206-4.603C134.291,11.333,136.352,12.32,137.013,14.2L137.013,14.2
		z"/>
	<path fill-rule="evenodd" clip-rule="evenodd" fill="#4AB7C3" d="M128.813,17.088c0.455,1.293-0.225,2.711-1.517,3.167
		c-1.294,0.456-2.712-0.224-3.167-1.517c-0.456-1.293,0.225-2.711,1.517-3.167C126.939,15.115,128.358,15.794,128.813,17.088
		L128.813,17.088z"/>
	<polygon fill-rule="evenodd" clip-rule="evenodd" fill="#4AB7C3" points="131.899,15.057 132.491,16.737 127.492,18.497 
		126.901,16.817 131.899,15.057 	"/>
	<path fill-rule="evenodd" clip-rule="evenodd" fill="#2B89AB" d="M158.12,79.167c-2.14,2.484-5.891,2.765-8.377,0.625
		c-2.484-2.141-2.765-5.891-0.625-8.376c2.141-2.486,5.891-2.765,8.376-0.625C159.98,72.93,160.261,76.681,158.12,79.167
		L158.12,79.167z"/>
	<path fill-rule="evenodd" clip-rule="evenodd" fill="#2B89AB" d="M147.277,69.83c-1.473,1.71-4.052,1.903-5.762,0.432
		c-1.711-1.473-1.903-4.053-0.432-5.763c1.473-1.71,4.053-1.903,5.763-0.431S148.75,68.12,147.277,69.83L147.277,69.83z"/>
	<polygon fill-rule="evenodd" clip-rule="evenodd" fill="#2B89AB" points="152.705,72.57 150.792,74.792 144.184,69.103 
		146.097,66.88 152.705,72.57 	"/>
	<path fill-rule="evenodd" clip-rule="evenodd" fill="#4AB7C3" d="M124.455,71.938c-1.533-0.405-2.447-1.979-2.041-3.512
		c0.406-1.533,1.979-2.447,3.513-2.041c1.533,0.406,2.446,1.979,2.041,3.513C127.562,71.432,125.989,72.345,124.455,71.938
		L124.455,71.938z"/>
	<path fill-rule="evenodd" clip-rule="evenodd" fill="#4AB7C3" d="M126.228,65.249c-1.055-0.278-1.683-1.36-1.404-2.416
		c0.279-1.055,1.361-1.684,2.416-1.403c1.055,0.279,1.685,1.361,1.404,2.416C128.364,64.9,127.282,65.529,126.228,65.249
		L126.228,65.249z"/>
	<polygon fill-rule="evenodd" clip-rule="evenodd" fill="#4AB7C3" points="126.182,68.189 124.811,67.827 125.892,63.749 
		127.262,64.112 126.182,68.189 	"/>
	<path fill-rule="evenodd" clip-rule="evenodd" fill="#2B89AB" d="M110.982,26.085c-0.732,0.815-1.987,0.882-2.802,0.149
		c-0.815-0.732-0.882-1.987-0.149-2.802s1.987-0.882,2.802-0.149C111.648,24.017,111.716,25.271,110.982,26.085L110.982,26.085z"/>
	<path fill-rule="evenodd" clip-rule="evenodd" fill="#2B89AB" d="M107.428,22.89c-0.504,0.561-1.367,0.606-1.928,0.103
		s-0.606-1.367-0.103-1.928c0.505-0.561,1.367-0.606,1.928-0.103C107.886,21.466,107.933,22.329,107.428,22.89L107.428,22.89z"/>
	<polygon fill-rule="evenodd" clip-rule="evenodd" fill="#2B89AB" points="109.221,23.844 108.566,24.572 106.4,22.624 
		107.056,21.896 109.221,23.844 	"/>
	<path fill-rule="evenodd" clip-rule="evenodd" fill="#4AB7C3" d="M169.761,34.236c1.128,0,2.044,0.915,2.044,2.044
		s-0.916,2.044-2.044,2.044c-1.129,0-2.044-0.915-2.044-2.044S168.632,34.236,169.761,34.236L169.761,34.236z"/>
	<path fill-rule="evenodd" clip-rule="evenodd" fill="#ACEBF2" d="M138.544,26.432c1.129,0,2.045,0.916,2.045,2.044
		s-0.916,2.044-2.045,2.044s-2.043-0.916-2.043-2.044S137.415,26.432,138.544,26.432L138.544,26.432z"/>
	<path fill-rule="evenodd" clip-rule="evenodd" fill="#2B89AB" d="M133.976,73.576c1.13,0,2.045,0.915,2.045,2.045
		c0,1.129-0.915,2.043-2.045,2.043c-1.129,0-2.043-0.914-2.043-2.043C131.933,74.491,132.847,73.576,133.976,73.576L133.976,73.576z
		"/>
	<path fill-rule="evenodd" clip-rule="evenodd" fill="#2B89AB" d="M124.209,45.043c1.13,0,2.045,0.915,2.045,2.044
		c0,1.128-0.915,2.044-2.045,2.044c-1.129,0-2.044-0.916-2.044-2.044C122.165,45.958,123.08,45.043,124.209,45.043L124.209,45.043z"
		/>
	<path fill-rule="evenodd" clip-rule="evenodd" fill="#2B89AB" d="M111.625,62.018c0.564,0,1.022,0.458,1.022,1.022
		s-0.458,1.021-1.022,1.021s-1.022-0.456-1.022-1.021S111.061,62.018,111.625,62.018L111.625,62.018z"/>
	<path fill-rule="evenodd" clip-rule="evenodd" fill="#2B89AB" d="M152.995,49.11c-0.765-1.391-0.256-3.137,1.135-3.9
		c1.39-0.764,3.136-0.255,3.9,1.136c0.763,1.391,0.254,3.136-1.136,3.9C155.504,51.009,153.758,50.501,152.995,49.11L152.995,49.11z
		"/>
	<path fill-rule="evenodd" clip-rule="evenodd" fill="#2B89AB" d="M159.061,45.78c-0.525-0.956-0.177-2.158,0.781-2.684
		c0.956-0.525,2.157-0.176,2.683,0.781c0.525,0.956,0.175,2.157-0.781,2.683C160.786,47.087,159.585,46.736,159.061,45.78
		L159.061,45.78z"/>
	<polygon fill-rule="evenodd" clip-rule="evenodd" fill="#2B89AB" points="156.898,47.775 156.217,46.532 159.914,44.502 
		160.597,45.745 156.898,47.775 	"/>
	<path fill-rule="evenodd" clip-rule="evenodd" fill="#4AB7C3" d="M128.281,6.99c1.129,0,2.044,0.916,2.044,2.044
		s-0.915,2.044-2.044,2.044s-2.045-0.916-2.045-2.044S127.152,6.99,128.281,6.99L128.281,6.99z"/>
	<path fill-rule="evenodd" clip-rule="evenodd" fill="#2B89AB" d="M160.885,4.224c3.581,1.9,4.944,6.345,3.044,9.927
		c-1.901,3.582-6.346,4.945-9.927,3.044c-3.582-1.901-4.946-6.345-3.045-9.927C152.857,3.686,157.303,2.323,160.885,4.224
		L160.885,4.224z"/>
	<path fill-rule="evenodd" clip-rule="evenodd" fill="#2B89AB" d="M152.593,19.849c2.464,1.307,3.401,4.365,2.094,6.829
		c-1.308,2.464-4.364,3.402-6.828,2.095c-2.465-1.308-3.402-4.366-2.096-6.83C147.071,19.479,150.129,18.541,152.593,19.849
		L152.593,19.849z"/>
	<polygon fill-rule="evenodd" clip-rule="evenodd" fill="#2B89AB" points="154.412,12.555 157.613,14.253 152.561,23.777 
		149.358,22.078 154.412,12.555 	"/>
	<path fill-rule="evenodd" clip-rule="evenodd" fill="#2B89AB" d="M17.535,51.084h4.964l-8.782-20.56H8.929L0,51.084h4.787
		C6.91,45.836,9.05,40.615,11.19,35.37c1.079,2.668,2.153,5.33,3.226,7.989h-3.781l-1.508,3.728
		c2.567-0.006,4.225-0.019,6.786-0.019L17.535,51.084L17.535,51.084z M24.642,30.524v20.56h4.436V37.896l9.957,13.188h4.229v-20.56
		h-4.405V43.74l-9.986-13.216H24.642L24.642,30.524z M45.76,30.524v3.935h6.256v16.625h4.641V34.459h6.285v-3.935H45.76
		L45.76,30.524z M65.439,30.524v20.56h4.641v-20.56H65.439L65.439,30.524z M84.207,30.377c-6.285,0-11.043,4.435-11.043,10.427
		c0,5.962,4.758,10.485,11.043,10.485s11.044-4.553,11.044-10.485C95.251,34.841,90.492,30.377,84.207,30.377L84.207,30.377z
		 M84.266,34.43c3.437,0,6.226,2.761,6.226,6.374c0,3.612-2.79,6.432-6.226,6.432s-6.344-2.819-6.344-6.432
		C77.922,37.191,80.8,34.43,84.266,34.43L84.266,34.43z M111.846,36.398l1.792-3.848c-2.057-1.351-4.935-2.232-7.813-2.232
		c-4.758,0-7.96,2.35-7.96,6.08c0,7.284,10.955,5.022,10.955,8.899c0,1.264-1.146,1.969-3.054,1.969
		c-2.173,0-5.169-1.204-7.284-3.084l-1.85,3.788c2.319,1.969,5.697,3.261,9.075,3.261c4.553,0,8.048-2.173,8.048-6.198
		c0.029-7.4-10.927-5.286-10.927-9.075c0-1.116,1.058-1.674,2.614-1.674C107.088,34.283,109.672,35.105,111.846,36.398
		L111.846,36.398z"/>
	<path fill-rule="evenodd" clip-rule="evenodd" d="M1.625,60.086V55.87H0.39v-1.304h3.976v1.304H3.131v4.216H1.625L1.625,60.086z
		 M8.567,60.086v-5.52h1.505v2.146h2.008v-2.146h1.505v5.52H12.08V57.84h-2.008v2.246H8.567L8.567,60.086z M18.224,60.086v-5.52
		h3.381v1.212H19.69v0.957h1.806v1.181H19.69v0.935h1.915v1.235H18.224L18.224,60.086z M26.066,60.086v-5.52h1.575
		c0.615,0,1.045,0.027,1.287,0.084c0.242,0.058,0.452,0.152,0.628,0.284c0.198,0.15,0.351,0.344,0.458,0.577
		c0.106,0.233,0.159,0.491,0.159,0.773c0,0.427-0.105,0.774-0.315,1.042c-0.211,0.268-0.518,0.445-0.92,0.532l1.505,2.227h-1.698
		l-1.266-2.162v2.162H26.066L26.066,60.086z M27.479,57.176h0.278c0.324,0,0.561-0.057,0.71-0.167
		c0.149-0.109,0.224-0.283,0.224-0.52c0-0.276-0.069-0.474-0.208-0.591c-0.141-0.116-0.374-0.175-0.703-0.175h-0.301V57.176
		L27.479,57.176z M35.943,58.023h1.497l-0.563-1.821c-0.017-0.056-0.041-0.144-0.07-0.268c-0.031-0.123-0.07-0.281-0.117-0.475
		c-0.033,0.135-0.064,0.265-0.097,0.388c-0.031,0.124-0.063,0.242-0.095,0.354L35.943,58.023L35.943,58.023z M33.834,60.086
		l1.906-5.52h1.885l1.907,5.52h-1.497l-0.279-0.988h-2.137l-0.287,0.988H33.834L33.834,60.086z M44.937,60.086h-1.413v-5.52h1.575
		c0.615,0,1.047,0.028,1.297,0.089c0.249,0.062,0.459,0.164,0.633,0.31c0.203,0.168,0.359,0.38,0.466,0.632
		c0.106,0.253,0.16,0.534,0.16,0.843c0,0.33-0.053,0.619-0.159,0.868c-0.105,0.25-0.261,0.455-0.467,0.616
		c-0.156,0.121-0.34,0.208-0.551,0.26c-0.211,0.053-0.549,0.08-1.014,0.08h-0.256h-0.271V60.086L44.937,60.086z M44.937,57.052
		h0.287c0.362,0,0.614-0.051,0.757-0.148c0.143-0.101,0.215-0.269,0.215-0.508c0-0.232-0.071-0.396-0.211-0.494
		s-0.39-0.146-0.746-0.146h-0.301V57.052L44.937,57.052z M51.884,60.086v-5.52h3.381v1.212h-1.915v0.957h1.806v1.181h-1.806v0.935
		h1.915v1.235H51.884L51.884,60.086z M59.695,54.566h1.498v2.685c0,0.394,0.01,0.678,0.03,0.85c0.021,0.172,0.054,0.316,0.103,0.432
		c0.057,0.141,0.158,0.249,0.301,0.323c0.143,0.074,0.318,0.11,0.524,0.11c0.206,0,0.379-0.036,0.522-0.11
		c0.142-0.074,0.243-0.183,0.302-0.323c0.049-0.115,0.083-0.26,0.103-0.432c0.019-0.172,0.029-0.456,0.029-0.85v-0.377v-2.308h1.498
		v2.918c0,0.605-0.036,1.052-0.109,1.34c-0.073,0.287-0.195,0.533-0.369,0.738c-0.188,0.222-0.446,0.391-0.776,0.502
		c-0.33,0.113-0.729,0.168-1.198,0.168c-0.474,0-0.873-0.055-1.201-0.168c-0.328-0.111-0.588-0.28-0.778-0.502
		c-0.171-0.205-0.293-0.451-0.368-0.738c-0.073-0.288-0.111-0.734-0.111-1.34v-0.572V54.566L59.695,54.566z M70.008,60.086V55.87
		h-1.235v-1.304h3.976v1.304h-1.235v4.216H70.008L70.008,60.086z M76.989,60.086v-5.52h1.521v5.52H76.989L76.989,60.086z
		 M87.186,54.781v1.646c-0.206-0.229-0.412-0.397-0.616-0.504c-0.205-0.105-0.424-0.16-0.658-0.16c-0.432,0-0.782,0.147-1.05,0.442
		c-0.268,0.294-0.401,0.68-0.401,1.154c0,0.442,0.136,0.81,0.409,1.101c0.272,0.292,0.62,0.438,1.042,0.438
		c0.233,0,0.453-0.054,0.658-0.16c0.205-0.104,0.411-0.273,0.616-0.505v1.646c-0.238,0.115-0.476,0.202-0.711,0.261
		c-0.237,0.059-0.475,0.086-0.717,0.086c-0.301,0-0.579-0.035-0.833-0.106c-0.255-0.073-0.489-0.182-0.703-0.327
		c-0.412-0.276-0.726-0.624-0.942-1.043c-0.216-0.421-0.324-0.893-0.324-1.418c0-0.422,0.068-0.806,0.206-1.152
		c0.137-0.346,0.344-0.659,0.619-0.94c0.261-0.269,0.556-0.47,0.884-0.604c0.328-0.133,0.692-0.2,1.093-0.2
		c0.242,0,0.48,0.028,0.717,0.087C86.709,54.579,86.948,54.666,87.186,54.781L87.186,54.781z M91.747,58.303
		c0.225,0.253,0.443,0.442,0.661,0.568c0.217,0.125,0.434,0.188,0.65,0.188c0.2,0,0.366-0.055,0.494-0.162
		c0.131-0.108,0.194-0.246,0.194-0.412c0-0.182-0.054-0.322-0.167-0.423c-0.111-0.099-0.363-0.201-0.758-0.308
		c-0.539-0.145-0.924-0.336-1.146-0.568c-0.225-0.234-0.336-0.555-0.336-0.961c0-0.529,0.175-0.959,0.529-1.292
		c0.353-0.334,0.812-0.5,1.374-0.5c0.305,0,0.594,0.042,0.866,0.123c0.272,0.082,0.531,0.205,0.776,0.371l-0.473,1.081
		c-0.171-0.146-0.347-0.254-0.526-0.328s-0.355-0.111-0.532-0.111c-0.181,0-0.327,0.044-0.439,0.13
		c-0.114,0.087-0.17,0.198-0.17,0.333c0,0.138,0.048,0.249,0.147,0.332c0.099,0.083,0.291,0.162,0.573,0.237l0.069,0.02
		c0.613,0.165,1.017,0.347,1.21,0.547c0.131,0.135,0.229,0.298,0.299,0.487c0.067,0.19,0.101,0.399,0.101,0.632
		c0,0.585-0.191,1.057-0.576,1.412s-0.897,0.533-1.538,0.533c-0.386,0-0.736-0.065-1.053-0.195
		c-0.313-0.132-0.618-0.336-0.909-0.614L91.747,58.303L91.747,58.303z"/>
</g>
</svg>
